<svg width="183" height="204" viewBox="0 0 183 204" fill="none" xmlns="http://www.w3.org/2000/svg">
<path d="M115.281 157.302C116.466 160.742 109.311 163.54 84.8263 169.33C58.904 175.442 52.9845 175.738 52.9096 171.319C52.8738 165.242 113.236 151.792 115.281 157.302Z" fill="#FAFAFA"/>
<path d="M100.17 27.8821C109.627 24.6918 111.337 26.09 123.827 47.167C136.749 68.9216 138.415 73.4068 134.964 76.4363C128.685 81.9009 123.609 77.3592 106.424 51.3371C93.7558 32.1306 93.1899 30.2367 100.17 27.8821Z" fill="#FAFAFA"/>
<path d="M57.7847 81.7891C64.5574 79.3948 67.4456 80.0664 77.9162 86.3544C108.912 105.139 132.385 115.818 119.117 120.184C113.713 122.007 107.629 119.177 70.7195 98.547C50.3641 87.0353 48.7427 85.0588 57.7847 81.7891Z" fill="#FAFAFA"/>
</svg>
