<svg width="183" height="204" viewBox="0 0 183 204" fill="none" xmlns="http://www.w3.org/2000/svg">
<path d="M67.7167 157.302C66.5317 160.742 73.6862 163.54 98.1713 169.33C124.094 175.442 130.013 175.738 130.088 171.319C130.124 165.242 69.7614 151.792 67.7167 157.302Z" fill="#FAFAFA"/>
<path d="M82.8275 27.8821C73.3704 24.6918 71.6607 26.09 59.1702 47.167C46.2489 68.9216 44.5823 73.4068 48.0341 76.4363C54.3131 81.9009 59.3889 77.3592 76.5734 51.3371C89.2419 32.1306 89.8078 30.2367 82.8275 27.8821Z" fill="#FAFAFA"/>
<path d="M125.213 81.7891C118.44 79.3948 115.552 80.0664 105.081 86.3544C74.0854 105.139 50.6128 115.818 63.8803 120.184C69.2844 122.007 75.3686 119.177 112.278 98.547C132.633 87.0353 134.255 85.0588 125.213 81.7891Z" fill="#FAFAFA"/>
</svg>
