<svg width="167" height="120" viewBox="0 0 167 120" fill="none" xmlns="http://www.w3.org/2000/svg">
<path d="M82.5472 39.0607C110.869 19.8476 119.193 14.5602 119.193 13.1467C119.193 12.1521 115.423 12.8325 112.596 14.3507C97.31 22.5174 64.6427 45.7088 65.4282 47.9076C66.0565 49.792 68.8831 48.3265 82.5472 39.0607Z" fill="#FAFAFA"/>
<path d="M166.832 3.09546C166.832 1.26318 162.487 -0.516765 159.817 0.216158C157.828 0.73964 149.19 6.76007 132.542 17.2826C116.47 27.3863 112.806 30.1609 113.748 31.6265C115.214 33.9825 123.171 28.0669 151.65 12.3616C167.303 3.67139 166.832 3.93304 166.832 3.09546Z" fill="#FAFAFA"/>
<path d="M96.6817 40.4212C63.8049 59.1101 71.0819 56.3357 45.2729 69.2664C22.2385 80.8361 19.1498 81.5688 10.826 77.8517C1.50754 73.6641 0.25119 74.8679 4.0728 84.396C5.74802 88.5836 6.16678 90.2069 5.95734 91.9346C5.48619 95.8606 3.49686 101.567 1.6122 104.132C-4.35579 112.403 7.999 108.896 8.94131 108.477C13.81 106.383 18.731 108.477 25.8507 115.649C30.5623 120.361 37.8915 121.303 36.1115 116.958C32.2899 107.64 33.494 98.0594 45.9535 87.2231C56.0574 78.48 71.2914 66.3349 84.7976 57.1213C104.534 43.6144 106.209 42.2011 104.586 40.3162C103.487 39.0079 99.0372 39.0601 96.6817 40.4212ZM36.5304 85.8615C24.5943 97.85 25.6937 105.912 25.3796 106.855C18.574 103.347 19.6209 103.609 10.9307 103.138L12.2919 100.206C15.2759 93.7668 12.9725 85.1287 12.9725 85.0765L16.8988 86.3326C24.385 88.6886 30.5623 87.537 38.4149 82.3544C40.0901 81.255 41.6084 80.3128 41.7655 80.3128C41.9749 80.26 39.619 82.7733 36.5304 85.8615Z" fill="#FAFAFA"/>
</svg>
