<svg width="84" height="84" viewBox="0 0 84 84" fill="none" xmlns="http://www.w3.org/2000/svg">
<path d="M62.3399 45.2177C76.1151 47.9003 82.2542 48.2217 81.5915 46.24C81.2345 45.2174 80.8888 44.9205 79.0941 44.0669C75.5819 42.4545 59.2898 39.4515 58.3085 40.2475C56.9472 41.3517 59.5861 44.6697 62.3399 45.2177Z" fill="#FAFAFA"/>
<path d="M44.2919 23.4847C45.8357 23.9645 45.911 23.7985 47.0245 16.1771C47.6529 12.0985 47.7029 9.11895 47.2199 7.35881C46.5734 4.94406 44.8036 4.96239 44.4822 6.37783C41.6484 18.5434 41.6253 22.656 44.2919 23.4847Z" fill="#FAFAFA"/>
<path d="M56.8251 60.0305C55.8285 57.6373 50.9513 45.2185 50.6456 44.2592C50.4898 43.8083 50.9175 43.0415 51.8911 42.0418C59.0847 34.4749 66.0118 26.1263 66.3393 24.6536C66.5992 23.5505 64.8883 21.8941 63.686 22.0295C62.4838 22.165 52.5742 26.319 45.6194 29.6509L41.0762 31.8145C20.7927 18.4552 20.1233 17.371 24.2216 27.5355L27.8347 36.5193C29.8808 41.6301 29.9263 41.7502 29.093 42.7935C27.8936 44.2913 22.4711 52.1011 19.7258 55.6401C13.8056 63.2238 21.0744 62.9968 37.063 55.0141L40.7303 53.1941C41.1017 53.5226 43.2746 55.7485 53.9446 64.3089C56.4087 66.2466 58.313 63.5473 56.8251 60.0305ZM51.6276 56.7935C51.2006 56.72 43.8993 51.148 42.7951 49.7867C41.4599 48.1406 40.3603 48.4026 31.4059 52.5692C25.4976 55.3146 25.3262 55.2968 27.6104 52.2893C30.4943 48.5329 33.2602 43.4023 34.0618 42.3846C34.7942 41.4757 33.9893 39.1894 30.0634 30.9845C28.0877 26.8664 27.9361 26.0972 29.3686 27.0868C31.1531 28.3161 39.9767 34.0179 40.6957 34.9043C41.389 35.759 42.6128 35.9736 43.7679 35.4565L55.3945 30.1197C57.4318 29.2019 57.4321 29.2022 51.8805 35.7522C45.6599 43.1597 45.8482 42.7441 47.2221 45.4086C48.9317 48.7456 52.1119 56.873 51.6276 56.7935Z" fill="#FAFAFA"/>
<path d="M38.5334 57.8622C37.837 58.4272 36.1635 73.6406 36.6388 75.1971C37.6286 78.4881 39.4721 78.0425 40.0011 74.3593C41.5061 64.3735 40.7494 56.0648 38.5334 57.8622Z" fill="#FAFAFA"/>
<path d="M16.7354 35.1298C7.68985 32.3898 6.1752 32.4636 8.64029 35.5027C9.84715 36.9906 23.9948 41.103 24.6184 40.1247C25.5885 38.6031 23.1716 37.047 16.7354 35.1298Z" fill="#FAFAFA"/>
</svg>
