<svg width="210" height="168" viewBox="0 0 210 168" fill="none" xmlns="http://www.w3.org/2000/svg">
<path d="M175.689 62.8466C171.32 72.4656 175.048 75.7517 187.02 72.9948C197.277 70.6027 202.044 61.548 194.08 59.843C186.859 58.2334 177.017 59.9375 175.689 62.8466Z" fill="#FAFAFA"/>
<path d="M163.23 40.4789C161.539 45.1093 163.306 58.7936 165.775 61.3339C171.197 66.8615 174.099 46.2199 169.058 37.7188C167.342 34.6476 164.921 35.8486 163.23 40.4789Z" fill="#FAFAFA"/>
<path d="M160.397 62.2556C149.596 57.6496 133.833 71.0831 143.347 76.8216C146.099 78.4858 157.837 75.5553 159.994 72.6242C162.05 69.7085 162.399 63.0966 160.397 62.2556Z" fill="#FAFAFA"/>
<path d="M169.272 92.5608C172.532 103.728 172.992 104.699 175.129 104.374C179.709 103.678 179.786 91.171 175.445 81.1058C169.785 68.5338 164.932 77.7058 169.272 92.5608Z" fill="#FAFAFA"/>
<path d="M46.7265 85.781C48.3801 80.2192 45.5866 62.5258 43.0422 62.9125C39.6837 63.423 38.2401 69.6818 39.1854 79.326C40.5174 91.5145 44.1121 94.6126 46.7265 85.781Z" fill="#FAFAFA"/>
<path d="M165.898 132.017C158.259 119.433 142.794 106.061 130.664 87.9126C121.086 73.5411 119.999 64.335 124.207 52.9704C129.037 39.5328 126.724 33.2204 119.596 40.4472C108.948 51.2288 93.7399 51.8745 81.4073 41.9828C70.8487 33.4869 66.9062 45.2271 75.5213 59.4325C81.2256 68.8739 81.2941 70.0099 76.6678 83.4165C71.0189 99.6859 71.9055 102.779 81.5497 101.834C91.1785 100.787 101.397 102.253 108.373 105.67C119.485 110.958 149.212 131.846 156.165 139.223C165.601 149.243 175.223 147.468 165.898 132.017ZM113.201 88.7968C106.139 85.4968 99.708 84.2877 92.8117 84.8153C81.0857 85.7647 87.6611 85.1817 88.5535 67.7611C88.8067 61.8916 89.121 61.219 91.0303 61.4494C101.758 62.8385 105.931 62.2042 113.507 57.9289C114.463 57.3671 114.507 59.0264 113.692 63.9401C113.114 67.6724 112.916 73.2211 113.278 76.2899C114.049 82.7326 115.779 87.2596 116.9 90.5253L113.201 88.7968Z" fill="#FAFAFA"/>
<path d="M46.1816 62.3301C53.1683 63.7672 58.3435 62.8775 60.5874 59.8291C63.2629 56.1945 62.7573 50.1279 59.7773 49.019C57.3526 48.138 54.713 49.2682 49.5534 50.2607C43.0862 51.5561 40.3764 61.13 46.1816 62.3301Z" fill="#FAFAFA"/>
<path d="M29.1185 54.1998C25.5524 52.6593 9.32115 56.1667 7.74323 58.8014C2.78149 67.261 8.91175 70.5994 21.5831 66.2784C29.6966 63.4833 34.1316 56.3533 29.1185 54.1998Z" fill="#FAFAFA"/>
<path d="M39.6039 25.2205C38.5601 22.4636 36.6108 22.6557 34.6014 25.8767C32.3176 29.3476 34.3808 48.4019 37.1662 48.9156C42.1263 50.036 43.6154 35.8564 39.6039 25.2205Z" fill="#FAFAFA"/>
</svg>
